# xmcd
# 
# Track frame offsets:
#     150
#     17912
#     31965
#     43540
#     68632
#     82010
#     96862
#     113080
#     133622
#     149420
# 
# Disc length: 2209
# 
# Revision: 0
# Processed by: cddbd v1.5.2PL0 Copyright (c) Steve Scherf et al.
# Submitted via: BonkEnc v1.0.5
# 
DISCID=84089f0a
DTITLE=Little Feat - Dixie Chicken
DYEAR=0
DGENRE=Rock
TTITLE0=Dixie Chicken
TTITLE1=Two Trains
TTITLE2=Roll Um Easy
TTITLE3=On Your Way Down
TTITLE4=Kiss It Off
TTITLE5=Fool Yourself
TTITLE6=Walkin All NIght
TTITLE7=Fat Man In The Bathtub
TTITLE8=Juliette
TTITLE9=Lafayette Railroad
EXTD=
EXTT0=
EXTT1=
EXTT2=
EXTT3=
EXTT4=
EXTT5=
EXTT6=
EXTT7=
EXTT8=
EXTT9=
PLAYORDER=
